<svg width="26" height="34" viewBox="0 0 26 34" fill="none" xmlns="http://www.w3.org/2000/svg">
<path d="M15.3125 7.1377C12.7535 7.1377 10.6719 9.21928 10.6719 11.7783C10.6719 14.3373 12.7535 16.4189 15.3125 16.4189C17.8715 16.4189 19.9531 14.3373 19.9531 11.7783C19.9531 9.21928 17.8715 7.1377 15.3125 7.1377V7.1377ZM15.3125 15.3877C13.3227 15.3877 11.7031 13.7681 11.7031 11.7783C11.7031 9.78853 13.3227 8.16894 15.3125 8.16894C17.3023 8.16894 18.9218 9.78853 18.9218 11.7783C18.9218 13.7681 17.3023 15.3877 15.3125 15.3877Z" fill="black"/>
<path d="M21.4997 0.432617H9.12473C8.27186 0.432617 7.57786 1.12662 7.57786 1.97949V10.8017C6.92252 10.1313 6.00936 9.71378 4.99974 9.71378C4.71454 9.71378 4.48412 9.9442 4.48412 10.2294V26.3628L4.13769 26.2427C4.1149 26.2344 4.09188 26.2376 4.06863 26.2328C4.03502 26.2261 4.00164 26.2189 3.96804 26.2194C3.93443 26.2194 3.90358 26.2256 3.87113 26.2318C3.83867 26.238 3.80714 26.2443 3.77629 26.2572C3.7459 26.2691 3.72058 26.2866 3.69273 26.3041C3.66442 26.3221 3.63748 26.3398 3.61331 26.364C3.58914 26.3872 3.57096 26.4146 3.55139 26.4422C3.53804 26.4622 3.51893 26.4763 3.50765 26.4984L0.413913 32.6859C0.286616 32.9407 0.389744 33.2505 0.644335 33.3778C0.717996 33.4151 0.796948 33.4326 0.874291 33.4326C1.0635 33.4326 1.24559 33.3285 1.33628 33.1474L4.22742 27.3653L14.6141 30.9776C14.6146 30.9781 14.6157 30.9781 14.6167 30.9786L15.1044 31.1482L14.3356 32.6859C14.2083 32.9407 14.3114 33.2505 14.566 33.3778C14.6397 33.4151 14.7186 33.4326 14.796 33.4326C14.9852 33.4326 15.1673 33.3286 15.258 33.1474L16.2892 31.0849C16.2938 31.0757 16.2929 31.0663 16.297 31.0575C16.3021 31.0456 16.3104 31.0359 16.315 31.0235C16.3228 31.0014 16.3196 30.9786 16.3242 30.956C16.332 30.9215 16.3387 30.8874 16.338 30.8529C16.338 30.82 16.3318 30.7889 16.326 30.7564C16.3194 30.724 16.3136 30.6925 16.3007 30.6616C16.2878 30.6308 16.2708 30.605 16.2528 30.5771C16.2349 30.5493 16.2179 30.523 16.1941 30.4989C16.1704 30.4747 16.1426 30.456 16.1147 30.4365C16.0952 30.4236 16.0811 30.404 16.059 30.3932C16.0482 30.3881 16.0369 30.3886 16.0266 30.384C16.0157 30.3799 16.0091 30.3711 15.9978 30.3674L15.7008 30.2643L21.2129 24.1517H21.4995C22.3524 24.1517 23.0464 23.4577 23.0464 22.6048C24.1838 22.6048 25.1089 21.6797 25.1089 20.5423C25.1089 19.9231 24.829 19.3734 24.3957 18.9954C24.829 18.617 25.1089 18.0673 25.1089 17.4481C25.1089 16.8293 24.8294 16.2792 24.3962 15.9012C24.8294 15.5232 25.1089 14.9731 25.1089 14.3543C25.1089 13.7356 24.8294 13.1859 24.3962 12.8079C24.8294 12.4295 25.1089 11.8798 25.1089 11.2611C25.1089 10.1237 24.1838 9.19858 23.0464 9.19858V1.97986C23.0464 1.12699 22.3524 0.432986 21.4995 0.432986L21.4997 0.432617ZM14.6428 29.8968L5.51537 26.7216V10.7974C6.69046 11.0365 7.57786 12.0781 7.57786 13.323V22.6042C7.57786 23.4571 8.27186 24.1511 9.12473 24.1511H19.8249L14.6428 29.8968ZM21.4997 23.12H9.12473C8.84022 23.12 8.60911 22.8889 8.60911 22.6044V1.97949C8.60911 1.69497 8.84022 1.46386 9.12473 1.46386H21.4997C21.7842 1.46386 22.0153 1.69497 22.0153 1.97949V9.27128C21.1279 9.50171 20.4684 10.3025 20.4684 11.2606C20.4684 11.8798 20.7484 12.4295 21.1816 12.8075C20.7484 13.1859 20.4684 13.7356 20.4684 14.3548C20.4684 14.9735 20.7479 15.5237 21.1811 15.9017C20.7479 16.2796 20.4684 16.8298 20.4684 17.4485C20.4684 18.0673 20.7479 18.617 21.1811 18.9949C20.7479 19.3734 20.4684 19.9231 20.4684 20.5418C20.4684 21.4999 21.1279 22.3007 22.0153 22.5311V22.6043C22.0153 22.8888 21.7842 23.1199 21.4997 23.1199V23.12ZM23.0466 21.5732H22.5309C21.9621 21.5732 21.4997 21.1107 21.4997 20.5419C21.4997 19.9743 21.9612 19.5123 22.5284 19.5107C22.5293 19.5107 22.53 19.5111 22.5309 19.5111C22.5319 19.5111 22.5325 19.5107 22.5335 19.5107H23.0466C23.6153 19.5107 24.0778 19.9731 24.0778 20.5419C24.0778 21.1107 23.6153 21.5732 23.0466 21.5732H23.0466ZM24.0778 17.4477C24.0778 18.0165 23.6154 18.479 23.0466 18.479C23.0456 18.479 23.0449 18.4794 23.044 18.4794H22.5309H22.5284C21.9612 18.4785 21.4997 18.0163 21.4997 17.4486C21.4997 16.8799 21.9621 16.4174 22.5309 16.4174C22.533 16.4174 22.5339 16.4165 22.536 16.4165H23.0466C23.6154 16.4165 24.0778 16.8789 24.0778 17.4477L24.0778 17.4477ZM22.5309 15.3852C22.53 15.3852 22.5289 15.3857 22.5273 15.3857C21.9612 15.3841 21.4997 14.9225 21.4997 14.3549C21.4997 13.7861 21.9621 13.3237 22.5309 13.3237H23.0465C23.0475 13.3237 23.0486 13.3232 23.0502 13.3232C23.6162 13.3248 24.0778 13.7863 24.0778 14.354C24.0778 14.9228 23.6154 15.3852 23.0466 15.3852H22.5309ZM24.0778 11.2607C24.0778 11.8284 23.6163 12.2904 23.0491 12.292C23.0482 12.292 23.0475 12.2915 23.0466 12.2915C23.0445 12.2915 23.0436 12.2924 23.0415 12.2924H22.5337C22.5325 12.2924 22.5319 12.292 22.5309 12.292C21.9621 12.292 21.4997 11.8295 21.4997 11.2607C21.4997 10.6919 21.9621 10.2295 22.5309 10.2295H23.0466C23.6154 10.2295 24.0778 10.6919 24.0778 11.2607V11.2607Z" fill="black"/>
<path d="M15.3125 19.5107C14.4596 19.5107 13.7656 20.2047 13.7656 21.0576C13.7656 21.9105 14.4596 22.6045 15.3125 22.6045C16.1654 22.6045 16.8594 21.9105 16.8594 21.0576C16.8594 20.2047 16.1654 19.5107 15.3125 19.5107ZM15.3125 21.5732C15.028 21.5732 14.7969 21.3421 14.7969 21.0576C14.7969 20.7731 15.028 20.542 15.3125 20.542C15.597 20.542 15.8281 20.7731 15.8281 21.0576C15.8281 21.3421 15.597 21.5732 15.3125 21.5732Z" fill="black"/>
<path d="M14.5391 3.57422H16.0859C16.3711 3.57422 16.6016 3.34379 16.6016 3.05859C16.6016 2.77339 16.3711 2.54297 16.0859 2.54297H14.5391C14.2539 2.54297 14.0234 2.77339 14.0234 3.05859C14.0234 3.34379 14.2539 3.57422 14.5391 3.57422Z" fill="black"/>
</svg>
