<svg width="21" height="21" viewBox="0 0 21 21" fill="none" xmlns="http://www.w3.org/2000/svg">
<path d="M10.5 0C4.7103 0 0 4.7103 0 10.5C0 16.2897 4.7103 21 10.5 21C16.2897 21 21 16.2897 21 10.5C21 4.7103 16.2897 0 10.5 0ZM2.1 10.5C2.1 8.5617 2.7657 6.7809 3.8724 5.35815L15.6418 17.1276C14.174 18.2761 12.3638 18.9001 10.5 18.9C5.86845 18.9 2.1 15.1315 2.1 10.5ZM17.1276 15.6418L5.35815 3.8724C6.8261 2.72401 8.63622 2.10006 10.5 2.1C15.1315 2.1 18.9 5.86845 18.9 10.5C18.8995 12.3637 18.2756 14.1737 17.1276 15.6418Z" fill="#184CB2"/>
</svg>
