<svg width="225" height="28" viewBox="0 0 225 28" fill="none" xmlns="http://www.w3.org/2000/svg">
<path d="M20.484 19.736C20.124 20.816 19.404 21.908 18.324 23.012C17.268 24.092 15.924 24.992 14.292 25.712C12.684 26.408 10.92 26.756 9 26.756C6.072 26.756 3.924 26.048 2.556 24.632C1.188 23.192 0.504 21.356 0.504 19.124C0.504 15.956 1.212 13.088 2.628 10.52C4.044 7.928 5.952 5.9 8.352 4.436C10.752 2.948 13.344 2.204 16.128 2.204C17.232 2.204 18.24 2.456 19.152 2.96C20.064 3.464 20.784 4.196 21.312 5.156C21.84 6.092 22.104 7.196 22.104 8.468C22.104 9.188 21.828 9.8 21.276 10.304C20.748 10.808 20.028 11.06 19.116 11.06C18.396 11.06 17.904 10.868 17.64 10.484C17.4 10.1 17.28 9.608 17.28 9.008L17.316 7.856C17.316 7.424 17.076 7.004 16.596 6.596C16.116 6.188 15.672 5.984 15.264 5.984C13.92 5.984 12.444 6.596 10.836 7.82C9.228 9.02 7.872 10.652 6.768 12.716C5.664 14.756 5.112 16.976 5.112 19.376C5.112 20.48 5.544 21.38 6.408 22.076C7.272 22.772 8.364 23.12 9.684 23.12C10.116 23.12 10.68 22.976 11.376 22.688C12.072 22.4 12.708 22.04 13.284 21.608C13.884 21.176 14.28 20.756 14.472 20.348C14.76 19.748 15.168 19.076 15.696 18.332C16.224 17.588 16.752 17.216 17.28 17.216C18.504 17.216 19.332 17.48 19.764 18.008C20.22 18.536 20.46 19.112 20.484 19.736ZM30.0968 26.756C27.9848 26.756 26.3408 26.036 25.1648 24.596C23.9888 23.156 23.4008 21.32 23.4008 19.088C23.4008 17.216 23.8448 15.452 24.7328 13.796C25.6448 12.14 26.8808 10.808 28.4408 9.8C30.0008 8.792 31.7168 8.288 33.5888 8.288C35.4368 8.288 36.9488 8.9 38.1248 10.124C39.3248 11.324 39.9248 13.1 39.9248 15.452C39.9248 17.108 39.4688 18.824 38.5568 20.6C37.6448 22.376 36.4208 23.852 34.8848 25.028C33.3728 26.18 31.7768 26.756 30.0968 26.756ZM30.6368 23.876C31.4048 23.876 32.1728 23.396 32.9408 22.436C33.7328 21.476 34.3808 20.264 34.8848 18.8C35.3888 17.336 35.6408 15.908 35.6408 14.516C35.6408 12.38 34.7528 11.312 32.9768 11.312C31.9928 11.312 31.0928 11.78 30.2768 12.716C29.4608 13.652 28.8128 14.816 28.3328 16.208C27.8528 17.576 27.6128 18.86 27.6128 20.06C27.6128 20.756 27.7688 21.404 28.0808 22.004C28.3928 22.58 28.7768 23.036 29.2328 23.372C29.7128 23.708 30.1808 23.876 30.6368 23.876ZM43.4821 9.548C43.4101 9.476 43.3741 9.392 43.3741 9.296C43.3741 9.056 43.6381 8.864 44.1661 8.72C44.6941 8.552 45.4261 8.468 46.3621 8.468C47.2021 8.468 47.7661 8.708 48.0541 9.188C48.3421 9.644 48.5221 10.244 48.5941 10.988C48.5461 11.18 48.4981 11.444 48.4501 11.78L48.2701 12.644C48.9661 11.828 49.9981 11.036 51.3661 10.268C52.7341 9.476 53.8021 9.08 54.5701 9.08C55.7701 9.08 56.5981 9.296 57.0541 9.728C57.5341 10.136 57.8101 10.928 57.8821 12.104C58.7701 11.264 59.7901 10.556 60.9421 9.98C62.0941 9.38 63.1021 9.08 63.9661 9.08C64.8781 9.08 65.7181 9.272 66.4861 9.656C67.2541 10.016 67.6381 10.604 67.6381 11.42C67.6381 11.636 67.6261 11.804 67.6021 11.924C67.5301 12.308 67.3861 12.848 67.1701 13.544C66.9781 14.216 66.8341 14.708 66.7381 15.02C66.1381 16.964 65.6701 18.608 65.3341 19.952C65.0221 21.272 64.8301 22.568 64.7581 23.84L65.2621 25.604C64.9741 26.156 64.5661 26.588 64.0381 26.9C63.5341 27.236 62.7901 27.404 61.8061 27.404C61.2301 27.404 60.8101 27.212 60.5461 26.828C60.2821 26.444 60.1501 25.964 60.1501 25.388C60.1501 25.268 60.1621 25.136 60.1861 24.992C60.2101 24.848 60.2221 24.716 60.2221 24.596C60.2701 23.252 60.4621 21.896 60.7981 20.528C61.1581 19.136 61.6141 17.576 62.1661 15.848C62.6701 14.336 62.9221 13.412 62.9221 13.076C62.9221 12.932 62.8981 12.788 62.8501 12.644C62.8261 12.476 62.7901 12.392 62.7421 12.392C62.1901 12.392 61.2781 12.656 60.0061 13.184C58.7581 13.712 57.9181 14.24 57.4861 14.768C57.0301 16.232 56.2741 19.28 55.2181 23.912L55.0021 24.92C54.8821 25.544 54.7621 25.976 54.6421 26.216C54.5461 26.456 54.3421 26.636 54.0301 26.756C53.7181 26.876 53.2141 26.936 52.5181 26.936C50.8621 26.936 50.0341 26.6 50.0341 25.928C50.2261 25.4 50.7541 23.372 51.6181 19.844C52.1461 17.66 52.7461 15.248 53.4181 12.608C53.2741 12.68 53.0101 12.788 52.6261 12.932C51.4741 13.388 50.4661 13.856 49.6021 14.336C48.7621 14.816 48.0781 15.38 47.5501 16.028L46.6141 19.844C46.4701 20.42 46.3381 20.96 46.2181 21.464C46.0981 21.944 45.9901 22.352 45.8941 22.688C45.7741 23.096 45.6901 23.648 45.6421 24.344C45.5941 24.824 45.5221 25.172 45.4261 25.388C45.3541 25.604 45.1501 25.784 44.8141 25.928C44.5021 26.048 43.9981 26.108 43.3021 26.108C42.5101 26.108 41.9101 26.024 41.5021 25.856C41.0941 25.688 40.8901 25.328 40.8901 24.776C40.8901 24.512 41.1901 23.108 41.7901 20.564C42.4141 18.02 43.2541 14.708 44.3101 10.628L43.4821 9.548ZM87.5669 1.844C87.5669 2.684 87.4229 3.272 87.1349 3.608C86.8469 3.92 86.4389 4.076 85.9109 4.076C85.5749 4.076 85.2269 4.04 84.8669 3.968C84.7229 3.944 84.5549 3.92 84.3629 3.896C84.1709 3.872 83.9429 3.86 83.6789 3.86C82.8629 3.86 82.0949 4.076 81.3749 4.508C80.6789 4.94 80.2349 5.516 80.0429 6.236L79.2509 9.404L81.4469 9.188C82.4069 9.092 82.9229 9.044 82.9949 9.044C83.9069 9.044 84.3629 9.572 84.3629 10.628C84.3629 11.036 84.1829 11.408 83.8229 11.744C83.4869 12.056 83.1149 12.248 82.7069 12.32L78.4229 12.752L75.1829 25.64C74.9909 26.024 74.6789 26.36 74.2469 26.648C73.8389 26.936 73.3949 27.08 72.9149 27.08C72.4829 27.08 72.0389 26.912 71.5829 26.576C71.1509 26.264 70.9349 25.844 70.9349 25.316V25.1L73.9589 13.112L71.3669 13.292C70.6229 13.292 70.2509 12.92 70.2509 12.176C70.2509 11.576 70.4669 10.976 70.8989 10.376C70.9949 10.256 72.3149 10.076 74.8589 9.836L75.4349 7.424C76.0109 4.952 76.8869 3.152 78.0629 2.024C79.2389 0.895998 80.9789 0.331998 83.2829 0.331998C84.2909 0.331998 85.1309 0.463998 85.8029 0.727999C86.4749 0.991999 87.0629 1.364 87.5669 1.844ZM91.6203 26.36C89.5083 26.36 87.8643 25.64 86.6883 24.2C85.5123 22.76 84.9243 20.924 84.9243 18.692C84.9243 16.82 85.3203 15.104 86.1123 13.544C86.9283 11.984 88.0563 10.76 89.4963 9.872C90.9603 8.96 92.6283 8.504 94.5003 8.504C96.5883 8.504 97.9923 8.684 98.7123 9.044C98.9283 9.14 99.1203 9.296 99.2883 9.512C99.4563 9.704 99.5403 9.896 99.5403 10.088C99.5403 10.328 99.4803 10.58 99.3603 10.844C99.2643 11.108 99.1083 11.312 98.8923 11.456C99.4443 11.504 99.9123 11.78 100.296 12.284C100.68 12.764 100.968 13.328 101.16 13.976C101.352 14.624 101.448 15.188 101.448 15.668C101.448 17.372 101.028 19.052 100.188 20.708C99.3723 22.364 98.2203 23.72 96.7323 24.776C95.2443 25.832 93.5403 26.36 91.6203 26.36ZM92.1603 23.372C92.9283 23.372 93.7083 23 94.5003 22.256C95.3163 21.488 95.9883 20.48 96.5163 19.232C97.0443 17.984 97.3083 16.676 97.3083 15.308C97.3083 15.044 97.2123 14.804 97.0203 14.588C96.8523 14.372 96.6123 14.144 96.3003 13.904C96.1323 13.784 95.9763 13.664 95.8323 13.544C95.7123 13.4 95.6523 13.268 95.6523 13.148C95.6523 13.052 95.6763 12.92 95.7243 12.752C95.7963 12.584 95.8323 12.464 95.8323 12.392C95.8323 12.032 95.3883 11.852 94.5003 11.852C93.5163 11.852 92.6043 12.248 91.7643 13.04C90.9483 13.832 90.3003 14.84 89.8203 16.064C89.3643 17.288 89.1363 18.488 89.1363 19.664C89.1363 20.36 89.2923 20.996 89.6043 21.572C89.9163 22.124 90.3003 22.568 90.7563 22.904C91.2363 23.216 91.7043 23.372 92.1603 23.372ZM107.562 24.632C107.538 24.8 107.49 25.088 107.418 25.496C107.37 25.904 107.19 26.192 106.878 26.36C106.59 26.528 106.098 26.612 105.402 26.612C104.61 26.612 104.022 26.528 103.638 26.36C103.254 26.192 103.05 25.832 103.026 25.28C103.218 24.32 103.53 22.616 103.962 20.168C104.106 19.352 104.334 18.128 104.646 16.496C104.958 14.84 105.198 13.64 105.366 12.896C105.606 11.192 105.942 10.076 106.374 9.548C106.806 8.996 107.334 8.72 107.958 8.72C108.798 8.72 109.35 8.84 109.614 9.08C109.902 9.32 110.058 9.632 110.082 10.016L109.794 12.14C110.514 11.204 111.366 10.436 112.35 9.836C113.334 9.212 114.222 8.9 115.014 8.9C116.07 8.9 116.898 9.092 117.498 9.476C118.098 9.836 118.398 10.304 118.398 10.88C118.398 11.312 118.134 11.648 117.606 11.888C117.102 12.128 116.43 12.284 115.59 12.356C114.27 12.476 112.962 13.04 111.666 14.048C110.37 15.056 109.434 16.244 108.858 17.612L107.562 24.632ZM123.047 22.04C123.047 22.592 123.191 23.036 123.479 23.372C123.767 23.684 124.175 23.84 124.703 23.84C125.423 23.84 126.011 23.636 126.467 23.228C126.947 22.796 127.451 22.196 127.979 21.428C128.363 20.876 128.675 20.48 128.915 20.24C129.155 20 129.431 19.88 129.743 19.88C130.367 19.88 130.811 19.964 131.075 20.132C131.339 20.276 131.471 20.588 131.471 21.068C131.471 21.284 131.447 21.548 131.399 21.86C131.351 22.148 131.291 22.364 131.219 22.508C130.643 23.732 129.695 24.788 128.375 25.676C127.079 26.564 125.603 27.008 123.947 27.008C122.291 27.008 121.043 26.612 120.203 25.82C119.363 25.004 118.943 23.852 118.943 22.364C118.943 22.148 119.051 21.584 119.267 20.672C119.483 19.76 119.759 18.668 120.095 17.396L121.103 13.292L118.907 13.472C118.619 13.472 118.403 13.364 118.259 13.148C118.115 12.932 118.043 12.668 118.043 12.356C118.043 11.756 118.259 11.156 118.691 10.556C118.739 10.484 118.979 10.412 119.411 10.34C119.843 10.268 120.371 10.196 120.995 10.124L121.967 10.016L123.191 4.76C123.431 4.136 123.791 3.656 124.271 3.32C124.775 2.96 125.243 2.78 125.675 2.78C126.155 2.78 126.563 2.924 126.899 3.212C127.235 3.5 127.415 3.836 127.439 4.22L126.143 9.62C127.079 9.5 127.943 9.404 128.735 9.332C129.551 9.236 130.187 9.188 130.643 9.188C131.555 9.188 132.011 9.716 132.011 10.772C132.011 11.18 131.831 11.552 131.471 11.888C131.135 12.2 130.763 12.392 130.355 12.464L125.315 12.968L123.047 22.04ZM148.914 21.572C149.37 21.908 149.67 22.244 149.814 22.58C149.958 22.892 150.03 23.264 150.03 23.696C150.03 24.368 149.55 24.932 148.59 25.388C146.79 25.628 144.27 25.856 141.03 26.072C137.79 26.312 135.474 26.444 134.082 26.468C133.218 26.012 132.786 25.436 132.786 24.74C132.786 24.452 132.93 24.128 133.218 23.768L140.742 14.48L147.654 5.948C142.518 6.092 139.362 6.548 138.186 7.316C137.85 7.052 137.574 6.68 137.358 6.2C137.166 5.696 137.07 5.24 137.07 4.832C137.07 4.16 137.526 3.608 138.438 3.176C140.238 2.936 142.758 2.708 145.998 2.492C149.238 2.252 151.554 2.12 152.946 2.096C153.81 2.552 154.242 3.128 154.242 3.824C154.242 4.112 154.098 4.436 153.81 4.796L139.554 22.436C143.778 22.172 146.898 21.884 148.914 21.572ZM161.865 26.36C160.449 26.36 159.225 26.024 158.193 25.352C157.161 24.68 156.369 23.768 155.817 22.616C155.289 21.464 155.025 20.156 155.025 18.692C155.025 16.772 155.397 15.044 156.141 13.508C156.909 11.948 157.989 10.724 159.381 9.836C160.773 8.948 162.393 8.504 164.241 8.504C166.281 8.504 167.661 8.684 168.381 9.044C168.573 9.14 168.753 9.296 168.921 9.512C169.113 9.704 169.221 9.896 169.245 10.088C169.197 10.736 168.981 11.192 168.597 11.456C169.149 11.504 169.605 11.78 169.965 12.284C170.349 12.788 170.637 13.376 170.829 14.048C171.021 14.696 171.117 15.284 171.117 15.812C171.117 17.516 170.745 19.184 170.001 20.816C169.257 22.424 168.177 23.756 166.761 24.812C165.369 25.844 163.737 26.36 161.865 26.36ZM162.369 23.372C163.137 23.372 163.869 23 164.565 22.256C165.285 21.512 165.861 20.528 166.293 19.304C166.749 18.056 166.977 16.724 166.977 15.308C166.977 15.044 166.893 14.804 166.725 14.588C166.557 14.372 166.317 14.144 166.005 13.904C165.957 13.88 165.837 13.784 165.645 13.616C165.477 13.448 165.393 13.292 165.393 13.148C165.393 13.052 165.417 12.92 165.465 12.752C165.513 12.56 165.537 12.428 165.537 12.356C165.537 12.02 165.117 11.852 164.277 11.852C163.293 11.852 162.417 12.248 161.649 13.04C160.905 13.808 160.317 14.804 159.885 16.028C159.477 17.228 159.273 18.44 159.273 19.664C159.273 20.36 159.429 20.996 159.741 21.572C160.077 22.124 160.485 22.568 160.965 22.904C161.445 23.216 161.913 23.372 162.369 23.372ZM176.413 8.54C177.589 7.94 178.525 7.64 179.221 7.64C180.037 7.64 180.493 8.06 180.589 8.9L179.401 13.328C179.905 12.632 180.649 11.948 181.633 11.276C182.617 10.604 183.601 10.052 184.585 9.62C185.593 9.188 186.397 8.972 186.997 8.972C188.269 8.972 189.193 9.212 189.769 9.692C190.345 10.148 190.633 10.88 190.633 11.888C190.393 13.232 190.033 14.852 189.553 16.748C189.073 18.62 188.773 19.808 188.653 20.312C188.125 22.28 187.753 23.756 187.537 24.74C187.393 25.34 187.249 25.76 187.105 26C186.985 26.216 186.757 26.372 186.421 26.468C186.109 26.564 185.557 26.612 184.765 26.612C184.333 26.612 183.925 26.54 183.541 26.396C183.181 26.252 183.001 26.012 183.001 25.676C183.073 24.884 183.313 23.672 183.721 22.04C184.153 20.384 184.729 18.248 185.449 15.632C185.929 14 186.169 13.112 186.169 12.968C186.169 12.632 185.977 12.464 185.593 12.464C185.041 12.464 184.213 12.848 183.109 13.616C182.005 14.36 180.865 15.62 179.689 17.396C178.513 19.148 177.589 21.44 176.917 24.272C176.869 24.416 176.809 24.68 176.737 25.064C176.665 25.448 176.473 25.724 176.161 25.892C175.849 26.036 175.345 26.108 174.649 26.108C173.857 26.108 173.269 26.024 172.885 25.856C172.525 25.688 172.345 25.328 172.345 24.776L172.741 23.228C174.157 17.684 175.381 12.788 176.413 8.54ZM198.627 26.756C196.275 26.756 194.559 26.288 193.479 25.352C192.399 24.416 191.859 23.168 191.859 21.608C191.859 19.328 192.423 17.216 193.551 15.272C194.703 13.328 196.227 11.792 198.123 10.664C200.043 9.512 202.107 8.936 204.315 8.936C205.659 8.936 206.787 9.32 207.699 10.088C208.611 10.832 209.067 11.936 209.067 13.4C209.067 14.24 208.791 14.936 208.239 15.488C207.711 16.016 206.943 16.496 205.935 16.928C204.927 17.336 203.295 17.924 201.039 18.692C198.999 19.364 197.343 19.928 196.071 20.384C195.975 20.744 195.927 21.116 195.927 21.5C195.927 22.172 196.203 22.688 196.755 23.048C197.331 23.408 198.135 23.588 199.167 23.588C199.815 23.588 200.559 23.456 201.399 23.192C202.239 22.928 202.767 22.592 202.983 22.184C203.799 20.696 204.543 19.952 205.215 19.952C206.199 19.952 206.859 20.144 207.195 20.528C207.555 20.888 207.747 21.296 207.771 21.752C207.483 22.52 206.919 23.3 206.079 24.092C205.239 24.86 204.171 25.496 202.875 26C201.579 26.504 200.163 26.756 198.627 26.756ZM197.079 17.072C199.455 16.304 201.411 15.596 202.947 14.948C204.483 14.276 205.251 13.616 205.251 12.968C205.251 12.68 205.095 12.452 204.783 12.284C204.471 12.092 204.135 11.996 203.775 11.996C203.055 11.996 202.227 12.272 201.291 12.824C200.379 13.376 199.527 14.048 198.735 14.84C197.943 15.632 197.391 16.376 197.079 17.072ZM216.328 14.156C216.352 14.636 216.556 15.02 216.94 15.308C217.324 15.572 217.96 15.896 218.848 16.28C219.784 16.688 220.552 17.084 221.152 17.468C221.752 17.828 222.268 18.356 222.7 19.052C223.132 19.748 223.348 20.624 223.348 21.68C223.348 23.408 222.7 24.728 221.404 25.64C220.132 26.528 218.404 26.972 216.22 26.972C215.14 26.972 214.12 26.78 213.16 26.396C212.224 26.036 211.48 25.58 210.928 25.028C210.376 24.476 210.088 23.924 210.064 23.372C210.064 22.772 210.28 22.292 210.712 21.932C211.168 21.572 211.804 21.332 212.62 21.212C212.644 21.692 212.884 22.148 213.34 22.58C213.796 22.988 214.324 23.324 214.924 23.588C215.548 23.828 216.088 23.948 216.544 23.948C217.456 23.948 218.08 23.792 218.416 23.48C218.776 23.144 218.956 22.688 218.956 22.112C218.956 21.488 218.752 20.9 218.344 20.348C217.936 19.772 217.312 19.352 216.472 19.088C215.176 18.68 214.144 18.02 213.376 17.108C212.608 16.172 212.224 15.212 212.224 14.228C212.224 12.5 212.812 11.168 213.988 10.232C215.164 9.296 216.82 8.828 218.956 8.828C220.036 8.828 220.996 9.02 221.836 9.404C222.676 9.788 223.324 10.268 223.78 10.844C224.236 11.42 224.464 11.984 224.464 12.536C224.464 13.112 224.224 13.592 223.744 13.976C223.288 14.336 222.652 14.576 221.836 14.696C221.788 13.928 221.512 13.28 221.008 12.752C220.528 12.224 219.964 11.96 219.316 11.96C218.548 11.96 217.852 12.176 217.228 12.608C216.628 13.04 216.328 13.556 216.328 14.156Z" fill="#0C5548"/>
</svg>
