<svg width="34" height="34" viewBox="0 0 34 34" fill="none" xmlns="http://www.w3.org/2000/svg">
<path d="M19.8429 16.4201C20.6357 15.7301 21.1113 14.7458 21.1599 13.6959C21.2083 12.6463 20.825 11.6224 20.0995 10.8622C19.3737 10.1023 18.3687 9.67213 17.3178 9.67188C16.267 9.67162 15.2618 10.1016 14.5357 10.8612C13.8097 11.6212 13.4262 12.645 13.4743 13.6947C13.5224 14.7445 13.9977 15.7289 14.7903 16.4191C13.2887 17.3099 12.3679 18.926 12.3672 20.6717V21.9919C12.3672 22.2138 12.5005 22.4142 12.7055 22.4994C14.1677 23.1056 15.7344 23.4189 17.3171 23.4216C18.9 23.4228 20.4675 23.1093 21.9281 22.4994C22.1334 22.4144 22.2672 22.2141 22.2669 21.9919V20.6717C22.2696 18.925 21.3474 17.3074 19.8429 16.42L19.8429 16.4201ZM14.5671 13.5219C14.5671 12.7926 14.8569 12.0931 15.3725 11.5772C15.8883 11.0616 16.5878 10.7719 17.3171 10.7719C18.0463 10.7719 18.7458 11.0616 19.2617 11.5772C19.7773 12.0931 20.067 12.7926 20.067 13.5219C20.067 14.2513 19.7773 14.9506 19.2617 15.4665C18.7459 15.9821 18.0463 16.2718 17.3171 16.2718C16.5881 16.2708 15.8891 15.9809 15.3735 15.4655C14.8581 14.9499 14.5679 14.2509 14.5671 13.5219V13.5219ZM21.167 21.619C18.6842 22.5463 15.95 22.5463 13.4672 21.619V20.672C13.4684 19.9007 13.7019 19.1475 14.137 18.5105C14.572 17.8736 15.1885 17.3826 15.9067 17.1007C16.8147 17.4596 17.8255 17.4589 18.733 17.0987C19.451 17.3806 20.0673 17.8724 20.5014 18.5098C20.9357 19.1472 21.1675 19.9007 21.167 20.6719V21.619Z" fill="black"/>
<path d="M17.3184 7.46875C14.8395 7.47145 12.463 8.45747 10.7103 10.2103C8.95747 11.9632 7.97145 14.3397 7.96875 16.8184C8.48216 29.2224 26.1567 29.2186 26.6684 16.8184C26.6657 14.3395 25.6796 11.963 23.9268 10.2103C22.1739 8.45747 19.7975 7.47145 17.3188 7.46875H17.3184ZM17.3184 25.0684C15.1312 25.0659 13.0341 24.196 11.4875 22.6494C9.94085 21.1029 9.07099 19.0058 9.06854 16.8186C9.5213 5.8741 25.1169 5.87724 25.5682 16.8186C25.5658 19.006 24.6958 21.1028 23.1493 22.6494C21.6027 24.1961 19.5056 25.0659 17.3184 25.0684Z" fill="black"/>
<path d="M29.4969 24.3213C29.5767 24.1904 29.5986 24.0323 29.5573 23.8847C29.5161 23.7372 29.4154 23.6132 29.2794 23.5425C28.7866 23.2896 28.4552 22.8047 28.3977 22.2539C28.3402 21.7029 28.5652 21.1604 28.9951 20.8112C29.4253 20.462 30.0025 20.3535 30.5299 20.5229C30.6757 20.5693 30.8346 20.5529 30.9679 20.4778C31.1015 20.4026 31.1977 20.2754 31.2338 20.1267C31.7517 17.9535 31.7517 15.6892 31.2338 13.5161C31.1977 13.3673 31.1015 13.2401 30.9679 13.165C30.8346 13.0899 30.6757 13.0734 30.5299 13.1198C30.0025 13.2892 29.4253 13.1807 28.9951 12.8316C28.5649 12.4824 28.3402 11.9398 28.3977 11.3888C28.4552 10.8379 28.7866 10.3532 29.2794 10.1003C29.4154 10.0296 29.5161 9.90558 29.5573 9.75802C29.5986 9.61046 29.5767 9.45233 29.4969 9.32146C28.3221 7.42202 26.722 5.8219 24.8225 4.64706C24.6919 4.56628 24.5335 4.54394 24.3855 4.58519C24.2377 4.62644 24.1137 4.72784 24.0437 4.8646C23.7908 5.35738 23.3061 5.68908 22.7552 5.74628C22.2042 5.80373 21.6613 5.57907 21.3124 5.1489C20.9633 4.71873 20.8548 4.14151 21.0242 3.61409C21.0703 3.46824 21.0539 3.30963 20.979 3.17606C20.9039 3.04274 20.7767 2.94625 20.6279 2.91015C18.4545 2.39453 16.1906 2.39453 14.0173 2.91015C13.8685 2.94624 13.7416 3.04274 13.6665 3.17606C13.5913 3.30963 13.5749 3.46824 13.6211 3.61409C13.7907 4.14173 13.6827 4.71922 13.3333 5.14941C12.9841 5.57982 12.4413 5.80449 11.8903 5.74703C11.3391 5.68957 10.8542 5.35762 10.6015 4.86459C10.5315 4.72783 10.4075 4.62643 10.2597 4.58518C10.1117 4.54393 9.95331 4.56628 9.82269 4.64705C7.92325 5.82189 6.32313 7.42202 5.14829 9.32146C5.06849 9.45232 5.04688 9.61045 5.08789 9.75801C5.12914 9.90558 5.2298 10.0296 5.36583 10.1003C5.86352 10.3502 6.20012 10.8359 6.25933 11.3898C6.31874 11.9435 6.09261 12.4896 5.65925 12.8394C5.22564 13.189 4.64425 13.2946 4.11538 13.1198C3.96954 13.0734 3.81067 13.0896 3.67735 13.1647C3.54378 13.2401 3.44754 13.3673 3.41144 13.5161C2.8941 15.6893 2.8941 17.9536 3.41144 20.1266C3.44655 20.2759 3.54279 20.4039 3.67662 20.479C3.81018 20.5553 3.96954 20.5713 4.11538 20.5229C4.64426 20.3479 5.22567 20.4537 5.65925 20.8033C6.09261 21.1532 6.31873 21.699 6.25933 22.2529C6.20015 22.8066 5.86353 23.2925 5.36583 23.5425C5.2298 23.6132 5.12914 23.7372 5.08789 23.8847C5.04688 24.0323 5.06849 24.1904 5.14829 24.3213C6.32313 26.2207 7.92325 27.8208 9.82269 28.9957C9.95356 29.0755 10.1117 29.0973 10.2592 29.0561C10.4068 29.0148 10.5308 28.9142 10.6015 28.7781C10.8515 28.2805 11.3371 27.9439 11.8911 27.8844C12.445 27.8252 12.9908 28.0514 13.3406 28.4847C13.6903 28.9183 13.7961 29.4997 13.621 30.0284C13.5749 30.1745 13.5913 30.3331 13.6665 30.4667C13.7413 30.6 13.8685 30.6965 14.0173 30.7326C16.1905 31.2499 18.4548 31.2499 20.6279 30.7326C20.7767 30.6965 20.9036 30.6 20.9787 30.4667C21.0539 30.3331 21.0703 30.1745 21.0242 30.0284C20.8547 29.501 20.963 28.9238 21.3122 28.4936C21.6613 28.0637 22.2042 27.839 22.7551 27.8962C23.3061 27.9537 23.7908 28.2854 24.0437 28.7781C24.1144 28.9142 24.2382 29.0148 24.386 29.0561C24.5335 29.0973 24.6917 29.0755 24.8225 28.9957C26.722 27.8208 28.3221 26.2207 29.4969 24.3213L29.4969 24.3213ZM24.6899 27.7727C24.1866 27.1731 23.4512 26.8174 22.6687 26.7945C21.8865 26.7719 21.1314 27.0845 20.5942 27.6539C20.057 28.223 19.7886 28.9947 19.8567 29.7745C18.1831 30.1021 16.4619 30.1021 14.7884 29.7745C14.8564 28.9947 14.588 28.223 14.0508 27.6539C13.5136 27.0845 12.7586 26.772 11.9764 26.7945C11.1939 26.8174 10.4585 27.1731 9.95516 27.7727C8.5426 26.8179 7.32602 25.6012 6.37112 24.1887C6.97071 23.6853 7.32672 22.95 7.34928 22.1675C7.37211 21.385 7.05955 20.6302 6.49017 20.093C5.92078 19.5557 5.14907 19.2874 4.36928 19.3554C4.04076 17.6819 4.04076 15.9607 4.36928 14.2872C5.14907 14.3554 5.92082 14.0871 6.49017 13.5499C7.05955 13.0124 7.37235 12.2576 7.34953 11.4751C7.3267 10.6926 6.97068 9.95727 6.37112 9.45392C7.32596 8.04136 8.5426 6.82478 9.95516 5.86988C10.4585 6.46947 11.1939 6.82523 11.9764 6.84804C12.7586 6.87088 13.5136 6.55807 14.0508 5.98893C14.5881 5.41954 14.8564 4.64783 14.7884 3.86804C16.4619 3.54051 18.1831 3.54051 19.8567 3.86804C19.7886 4.64783 20.057 5.41958 20.5942 5.98893C21.1314 6.55807 21.8865 6.87086 22.6687 6.84804C23.4512 6.82521 24.1865 6.46944 24.6899 5.86988C26.1025 6.82472 27.319 8.04136 28.2739 9.45392C27.6743 9.95726 27.3186 10.6926 27.2958 11.4751C27.2732 12.2574 27.5857 13.0124 28.1549 13.5496C28.7243 14.0868 29.496 14.3552 30.2758 14.2872C30.6043 15.9607 30.6043 17.6819 30.2758 19.3554C29.496 19.2874 28.7242 19.5558 28.1551 20.093C27.5858 20.6302 27.2732 21.3852 27.2958 22.1675C27.3186 22.95 27.6746 23.6853 28.2739 24.1887C27.3191 25.6012 26.1025 26.8178 24.6899 27.7727Z" fill="black"/>
<path d="M33.3437 20.5122C33.0699 20.4776 32.8128 20.6502 32.7409 20.9166C31.639 25.0109 28.9634 28.5033 25.2975 30.6335C25.0871 30.7612 24.9864 31.0126 25.0503 31.25C25.1143 31.4877 25.3275 31.6547 25.5735 31.6593C28.7401 30.14 31.1888 27.2317 32.7227 24.1336V26.1671C32.7269 26.4679 32.9719 26.7095 33.2727 26.7092C33.5735 26.7092 33.8185 26.4679 33.8227 26.1671V21.0571C33.8227 20.7809 33.6177 20.5476 33.3436 20.512L33.3437 20.5122Z" fill="black"/>
<path d="M21.4168 1.40241C25.511 2.50433 29.0035 5.17992 31.1336 8.8458C31.2859 9.10876 31.6222 9.19838 31.8852 9.04615C32.1479 8.89392 32.2375 8.55755 32.0853 8.29484C30.3479 5.30723 27.7515 2.9118 24.6338 1.42029H26.6673C26.968 1.41612 27.2096 1.17108 27.2094 0.870301C27.2094 0.569523 26.968 0.324486 26.6673 0.320312H21.5573C21.284 0.325223 21.0554 0.529503 21.0203 0.800569C20.9849 1.07139 21.1536 1.32748 21.4166 1.40212L21.4168 1.40241Z" fill="black"/>
<path d="M9.34583 3.00639C9.60388 2.85195 9.69006 2.51901 9.5393 2.25872C9.38879 1.9987 9.05708 1.90761 8.79484 2.05468C5.80724 3.79208 3.4118 6.38853 1.92029 9.50624V7.47273C1.92029 7.16901 1.67402 6.92274 1.3703 6.92274C1.06658 6.92274 0.820312 7.16901 0.820312 7.47273V12.5827C0.824978 12.856 1.02926 13.0846 1.30057 13.1199C1.57163 13.1553 1.82748 12.9864 1.90212 12.7234C3.00405 8.62917 5.67963 5.13671 9.34551 3.00652L9.34583 3.00639Z" fill="black"/>
<path d="M13.2234 32.2349C9.1292 31.133 5.63674 28.4574 3.50655 24.7915C3.35212 24.5332 3.01918 24.4468 2.75888 24.5976C2.49859 24.7483 2.40753 25.0803 2.55485 25.3425C4.29225 28.3301 6.8887 30.7256 10.0064 32.2171H7.9729C7.67212 32.2212 7.43052 32.4663 7.43076 32.7671C7.43076 33.0678 7.67212 33.3129 7.9729 33.317H13.0829C13.3562 33.3121 13.5848 33.1079 13.6199 32.8368C13.6552 32.566 13.4865 32.3099 13.2236 32.2352L13.2234 32.2349Z" fill="black"/>
</svg>
