<svg width="21" height="10" viewBox="0 0 21 10" fill="none" xmlns="http://www.w3.org/2000/svg">
<path d="M3.725 4.608C3.585 4.678 3.4345 4.741 3.2735 4.797C3.1195 4.853 2.9515 4.8985 2.7695 4.9335C2.9515 4.9755 3.1195 5.0245 3.2735 5.0805C3.4345 5.1295 3.585 5.1925 3.725 5.2695L8.4395 7.653C8.5795 7.723 8.6775 7.8035 8.7335 7.8945C8.7895 7.9855 8.8175 8.087 8.8175 8.199V9.543L0.701 5.322V4.545L8.8175 0.334499V1.668C8.8175 1.787 8.7895 1.892 8.7335 1.983C8.6775 2.067 8.5795 2.144 8.4395 2.214L3.725 4.608ZM15.9066 4.608C15.7666 4.678 15.6161 4.741 15.4551 4.797C15.3011 4.853 15.1331 4.8985 14.9511 4.9335C15.1331 4.9755 15.3011 5.0245 15.4551 5.0805C15.6161 5.1295 15.7666 5.1925 15.9066 5.2695L20.6211 7.653C20.7611 7.723 20.8591 7.8035 20.9151 7.8945C20.9711 7.9855 20.9991 8.087 20.9991 8.199V9.543L12.8826 5.322V4.545L20.9991 0.334499V1.668C20.9991 1.787 20.9711 1.892 20.9151 1.983C20.8591 2.067 20.7611 2.144 20.6211 2.214L15.9066 4.608Z" fill="black" fill-opacity="0.63"/>
</svg>
