<svg width="21" height="10" viewBox="0 0 21 10" fill="none" xmlns="http://www.w3.org/2000/svg">
<path d="M8.479 4.545V5.322L0.3625 9.543V8.199C0.3625 8.087 0.3905 7.9855 0.4465 7.8945C0.5025 7.8035 0.6005 7.723 0.7405 7.653L5.455 5.2695C5.595 5.1925 5.742 5.1295 5.896 5.0805C6.057 5.0245 6.225 4.9755 6.4 4.9335C6.043 4.8565 5.728 4.748 5.455 4.608L0.7405 2.214C0.6005 2.144 0.5025 2.067 0.4465 1.983C0.3905 1.892 0.3625 1.787 0.3625 1.668V0.334499L8.479 4.545ZM20.6606 4.545V5.322L12.5441 9.543V8.199C12.5441 8.087 12.5721 7.9855 12.6281 7.8945C12.6841 7.8035 12.7821 7.723 12.9221 7.653L17.6366 5.2695C17.7766 5.1925 17.9236 5.1295 18.0776 5.0805C18.2386 5.0245 18.4066 4.9755 18.5816 4.9335C18.2246 4.8565 17.9096 4.748 17.6366 4.608L12.9221 2.214C12.7821 2.144 12.6841 2.067 12.6281 1.983C12.5721 1.892 12.5441 1.787 12.5441 1.668V0.334499L20.6606 4.545Z" fill="black" fill-opacity="0.63"/>
</svg>
