<?xml version="1.0" standalone="no"?>
<!DOCTYPE svg PUBLIC "-//W3C//DTD SVG 1.0//EN" "http://www.w3.org/TR/2001/REC-SVG-20010904/DTD/svg10.dtd">
<svg xmlns="http://www.w3.org/2000/svg" xmlns:xlink="http://www.w3.org/1999/xlink" id="body_1" width="136" height="136">

<g transform="matrix(0.1328125 0 0 0.1328125 0 0)">
    <path d="M974.1731 224.56325L974.1731 793.61194L47.998302 793.61194L47.998302 224.56323L974.17303 224.56323L974.1731 224.56325zM133.5794 708.15875L468.93454 708.15875C 468.93454 615.5445 393.8393 540.4812 301.25696 540.4812C 208.64267 540.4812 133.57939 615.5445 133.57939 708.15875zM413.69205 423.34668C 413.69205 361.23087 363.34082 310.9116 301.25696 310.9116C 239.14113 310.9116 188.78992 361.23083 188.78992 423.34668C 188.78992 485.46252 239.14114 535.78174 301.25696 535.78174C 363.34082 535.78174 413.69205 485.4625 413.69205 423.34665z" stroke="none" fill="#5FCEFF" fill-rule="nonzero" />
    <path d="M468.9345 708.15875L133.57938 708.15875C 133.57938 615.5445 208.64265 540.4812 301.25696 540.4812C 393.83926 540.4812 468.9345 615.5445 468.9345 708.15875zM301.25696 310.9116C 363.34082 310.9116 413.69205 361.23083 413.69205 423.34668C 413.69205 485.46252 363.34082 535.78174 301.25696 535.78174C 239.14113 535.78174 188.78992 485.4625 188.78992 423.34665C 188.78992 361.2308 239.14114 310.91156 301.25696 310.91156z" stroke="none" fill="#FFB578" fill-rule="nonzero" />
    <path d="M974.1731 815.9935L47.998302 815.9935C 35.639107 815.9935 25.619997 805.9744 25.619982 793.61523L25.619982 793.61523L25.619982 224.56653C 25.61998 218.63144 27.977688 212.93942 32.17444 208.74266C 36.37119 204.54591 42.0632 202.1882 47.998302 202.1882L47.998302 202.1882L974.17303 202.1882C 986.5323 202.18822 996.55133 212.20734 996.55133 224.56653L996.55133 224.56653L996.55133 793.61523C 996.55133 805.9744 986.5322 815.9935 974.17303 815.9935L974.17303 815.9935L974.1731 815.9935zM70.37665 771.2369L951.7948 771.2369L951.7948 246.94476L70.376625 246.94476L70.376625 771.2369z" stroke="none" fill="#4F46A3" fill-rule="nonzero" />
    <path d="M301.25696 558.1601C 226.90338 558.1601 166.41159 497.68427 166.41159 423.34668C 166.41159 349.0091 226.90338 288.53326 301.25696 288.53326C 375.59134 288.53326 436.07037 349.0091 436.07037 423.34668C 436.07037 497.68427 375.59454 558.1601 301.25696 558.1601zM301.25696 333.29315C 251.58028 333.29315 211.16823 373.6924 211.16824 423.3499C 211.16826 473.00742 251.5835 513.4067 301.25696 513.4067C 350.91446 513.4067 391.31372 473.00742 391.31372 423.3499C 391.31372 373.6924 350.91446 333.29315 301.25696 333.29315z" stroke="none" fill="#4F46A3" fill-rule="nonzero" />
    <path d="M468.9345 730.5371C 456.57532 730.5371 446.5562 720.51807 446.55618 708.1588C 446.55618 628.038 381.3745 562.85956 301.25696 562.85956C 221.1394 562.85956 155.95772 628.0412 155.95772 708.1588C 155.96048 716.1557 151.6958 723.54626 144.7708 727.5455C 137.8458 731.5447 129.31302 731.5447 122.388016 727.5455C 115.463005 723.54626 111.198326 716.1557 111.20108 708.1588C 111.20108 603.36115 196.45929 518.1029 301.25696 518.1029C 406.05463 518.1029 491.31284 603.3611 491.31284 708.1588C 491.31284 720.52124 481.29694 730.5371 468.9345 730.5371zM889.35925 397.23117L569.66895 397.23117C 561.67395 397.23117 554.28625 392.96588 550.28876 386.042C 546.29126 379.11813 546.29126 370.58755 550.28876 363.66367C 554.28625 356.7398 561.67395 352.47452 569.66895 352.47452L569.66895 352.47452L889.35925 352.47452C 897.35425 352.47452 904.74194 356.7398 908.73944 363.6637C 912.73694 370.58755 912.73694 379.11813 908.73944 386.04202C 904.74194 392.96588 897.35425 397.23117 889.35925 397.23117zM889.35925 534.698L569.66895 534.698C 561.67395 534.698 554.28625 530.43274 550.28876 523.50885C 546.29126 516.58496 546.29126 508.0544 550.28876 501.13052C 554.28625 494.20667 561.67395 489.94138 569.66895 489.94135L569.66895 489.94135L889.35925 489.94135C 897.35425 489.94138 904.74194 494.20667 908.73944 501.13055C 912.73694 508.0544 912.73694 516.58496 908.73944 523.50885C 904.74194 530.43274 897.35425 534.698 889.35925 534.698zM889.35925 672.16486L569.66895 672.16486C 561.67395 672.1648 554.28625 667.89954 550.28876 660.97565C 546.29126 654.05176 546.29126 645.52124 550.28876 638.59735C 554.28625 631.67346 561.67395 627.4082 569.66895 627.4082L569.66895 627.4082L889.35925 627.4082C 897.35425 627.4082 904.74194 631.67346 908.73944 638.59735C 912.73694 645.52124 912.73694 654.05176 908.73944 660.97565C 904.74194 667.89954 897.35425 672.1648 889.35925 672.16486z" stroke="none" fill="#4F46A3" fill-rule="nonzero" />
</g>
</svg>