<?xml version="1.0" standalone="no"?>
<!DOCTYPE svg PUBLIC "-//W3C//DTD SVG 1.0//EN" "http://www.w3.org/TR/2001/REC-SVG-20010904/DTD/svg10.dtd">
<svg xmlns="http://www.w3.org/2000/svg" xmlns:xlink="http://www.w3.org/1999/xlink" id="body_1" width="160" height="160">

<g transform="matrix(3.5754192 0 0 3.5754192 0 0)">
	<g>
		<g>
			<g>
                <path d="M33.285 19.991C 33.282 19.952 33.281 19.913 33.277 19.875C 33.244 18.395 32.986 17.199 31.822 16.706C 30.592001 16.185 29.508001 16.178 28.713001 16.487C 28.661001 16.508 28.525002 16.687 28.473001 16.72C 28.420002 16.753 28.141 16.66 28.036001 16.685C 26.291 16.934 25.715 18.578 25.842001 19.859999C 26.259 20.588 26.391 21.505999 26.43 22.454998C 27.08 23.588999 28.196001 24.46 29.528 24.46C 31.307 24.46 32.716 22.957998 33.155 21.322998C 33.322998 21.303999 33.461998 21.176998 33.475 21.002998L33.475 21.002998L33.53 20.356998C 33.544 20.188 33.438 20.043 33.285 19.991zM29.525 23.96C 27.689 23.96 26.316 22.015 26.316 20.273998C 26.316 20.191998 26.323 20.111998 26.329 20.031998C 27.094 19.751997 28.564001 19.166998 28.725 18.858997C 29.393 19.552998 31.753 19.942997 32.79 20.073997C 32.795002 20.139997 32.801003 20.206997 32.801003 20.273998C 32.799 21.979 31.369 23.96 29.525 23.96z" stroke="none" fill="#000000" fill-rule="nonzero" />
                <path d="M9.641 20.342L9.696 20.987999C 9.712 21.169998 9.862 21.300999 10.04 21.310999C 10.469 22.949999 11.854 24.459 13.609 24.459C 14.986 24.459 16.134 23.557 16.79 22.394C 16.776001 21.581 16.990002 20.745998 17.454 20.054998C 17.425001 20.033998 17.404001 20.002998 17.369001 19.991C 17.366001 19.952 17.365002 19.913 17.361002 19.875C 17.328001 18.395 17.070002 17.199 15.906002 16.706C 14.6760025 16.185 13.592002 16.178 12.797002 16.487C 12.745002 16.508 12.610002 16.687 12.557002 16.72C 12.504002 16.753 12.225002 16.66 12.120002 16.685C 10.375002 16.934 9.799002 18.578999 9.926002 19.861C 9.922002 19.897 9.920002 19.933 9.917002 19.969C 9.746 20.01 9.625 20.165 9.641 20.342zM10.411 20.033C 11.176001 19.753 12.646 19.168001 12.806 18.86C 13.474 19.554 15.835 19.944 16.872 20.075C 16.876999 20.141 16.883 20.208 16.883 20.275002C 16.883 21.979002 15.452999 23.961002 13.61 23.961002C 11.773 23.961002 10.400999 22.016003 10.400999 20.275002C 10.399 20.192 10.405 20.112 10.411 20.033z" stroke="none" fill="#000000" fill-rule="nonzero" />
                <path d="M19.021 8.686C 19.282 9.683 20.124 10.601 21.192 10.601C 22.275 10.601 23.13 9.687 23.399 8.693C 23.502 8.681 23.586 8.604 23.594 8.498L23.594 8.498L23.627 8.1050005C 23.637001 8.002001 23.570002 7.9140005 23.479 7.8820004C 23.477 7.8590007 23.477 7.8350005 23.475 7.8120003C 23.454 6.912 23.297 6.1850004 22.589 5.8840003C 21.84 5.5670004 21.181 5.5620003 20.697 5.7510004C 20.665 5.7640004 20.583 5.8730006 20.551 5.8930006C 20.519001 5.9130006 20.349 5.857001 20.285 5.8720007C 19.223999 6.0230007 18.874 7.0230007 18.951 7.804001C 18.948 7.825001 18.947 7.848001 18.945 7.870001C 18.842 7.895001 18.769 7.989001 18.778 8.097001L18.778 8.097001L18.812 8.490001C 18.821 8.601 18.913 8.681 19.021 8.686zM19.247 7.908C 19.712 7.738 20.605999 7.382 20.704 7.1940002C 21.11 7.616 22.546001 7.854 23.177 7.933C 23.18 7.974 23.184 8.014 23.184 8.055C 23.184 9.091001 22.313 10.2960005 21.192 10.2960005C 20.074 10.2960005 19.24 9.113001 19.24 8.055C 19.24 8.005 19.243 7.957 19.247 7.908z" stroke="none" fill="#000000" fill-rule="nonzero" />
                <path d="M14.169 8.614C 12.695 8.824 12.209 10.213 12.316 11.297001C 12.313 11.327001 12.311 11.358001 12.308 11.3880005C 12.165 11.423 12.063 11.553 12.077 11.703L12.077 11.703L12.124 12.249001C 12.136999 12.403001 12.264 12.514001 12.414 12.521001C 12.776999 13.905001 13.945999 15.18 15.429 15.18C 16.932 15.18 18.121 13.911 18.493 12.531C 18.634 12.515 18.751 12.407001 18.764 12.26L18.764 12.26L18.81 11.715C 18.821999 11.5720005 18.732 11.45 18.604 11.405C 18.601 11.373 18.601 11.34 18.597 11.307C 18.569 10.057 18.351 9.047 17.368 8.63C 16.329 8.190001 15.413 8.184 14.742001 8.445C 14.698001 8.462999 14.584001 8.613999 14.5390005 8.641999C 14.494 8.67 14.259 8.592 14.169 8.614zM14.75 10.451C 15.314 11.037001 17.308 11.367001 18.184 11.477C 18.188 11.533 18.193 11.589001 18.193 11.646C 18.193 13.085 16.985 14.757999 15.428 14.757999C 13.876 14.757999 12.718 13.115 12.718 11.646C 12.718 11.577 12.723001 11.509 12.728001 11.441999C 13.374 11.206 14.615 10.71 14.75 10.451z" stroke="none" fill="#000000" fill-rule="nonzero" />
                <path d="M23.964 12.521C 24.327002 13.905 25.496 15.18 26.979 15.18C 28.483 15.18 29.671 13.911 30.043 12.531C 30.140999 12.52 30.210999 12.456 30.258999 12.375L30.258999 12.375L30.332998 12.367C 30.349998 12.365 30.38 12.354 30.382998 12.323999L30.382998 12.323999L30.429998 11.78C 30.432 11.743 30.394999 11.729 30.390999 11.728L30.390999 11.728L30.359999 11.717C 30.371998 11.574 30.282 11.452 30.152998 11.407C 30.150997 11.375 30.150997 11.342 30.146997 11.309C 30.118998 10.059 29.900997 9.049 28.917997 8.632C 27.878998 8.192 26.962997 8.186 26.291998 8.447C 26.247997 8.464999 26.133997 8.615999 26.088999 8.643999C 26.044998 8.671 25.81 8.593999 25.72 8.614999C 24.245998 8.824999 23.759998 10.213999 23.866999 11.297998C 23.863998 11.327998 23.862 11.358998 23.857998 11.388998C 23.714998 11.423998 23.613998 11.553998 23.627998 11.703998L23.627998 11.703998L23.675 12.249998C 23.688 12.402 23.814 12.515 23.964 12.521zM24.277 11.441C 24.923 11.205 26.165 10.71 26.299 10.45C 26.862 11.036 28.857 11.366 29.734 11.476C 29.737999 11.532 29.743 11.588 29.743 11.6449995C 29.743 13.084 28.535 14.757 26.978 14.757C 25.425001 14.757 24.267 13.114 24.267 11.645C 24.27 11.577 24.273 11.508 24.277 11.441z" stroke="none" fill="#000000" fill-rule="nonzero" />
                <path d="M18.695 12.731C 18.522 13.292 18.205 13.842 17.788 14.3029995L17.788 14.3029995L21.183 14.304999L21.183 14.299L24.650002 14.297C 24.243002 13.838 23.933002 13.289 23.763002 12.73C 23.576002 12.653999 23.443003 12.481 23.425003 12.271L23.425003 12.271L23.378002 11.725C 23.360003 11.524 23.454002 11.337 23.614002 11.227C 23.596003 11.035 23.604002 10.837 23.625002 10.639C 23.423002 10.431 23.187002 10.284 22.902002 10.243C 22.846003 10.234 22.791002 10.247 22.755003 10.262L22.755003 10.262L21.861004 11.471L21.182003 10.929999L21.178003 10.933L21.178003 10.936L21.177004 10.934999L20.5 11.477L19.606 10.268001C 19.570002 10.254001 19.515001 10.241 19.460001 10.250001C 19.204 10.286001 18.989 10.411001 18.800001 10.585001C 18.824001 10.808001 18.840002 11.033001 18.846 11.2560005C 18.992 11.368001 19.075 11.548 19.059 11.737L19.059 11.737L19.013 12.281C 18.995 12.483 18.872 12.65 18.695 12.731z" stroke="none" fill="#000000" fill-rule="nonzero" />
                <path d="M33.085 21.764C 32.822998 22.433 32.391 23.058 31.838999 23.52C 32.398 23.052 32.83 22.424 33.085 21.764z" stroke="none" fill="#000000" fill-rule="nonzero" />
                <path d="M12.402 16.458C 12.4210005 16.461 12.439 16.465 12.456 16.468C 12.463 16.460001 12.47 16.452 12.478001 16.443C 12.567 16.345001 12.625001 16.284 12.704 16.253C 13.154 16.078001 13.663 16.011 14.204 16.041L14.204 16.041L13.226001 14.718C 13.176001 14.698 13.1 14.681001 13.023001 14.693001C 12.106001 14.8220005 11.528001 15.711 11.161001 16.744001C 11.432001 16.602001 11.730001 16.487001 12.083001 16.436L12.083001 16.436L12.164001 16.429C 12.23 16.431 12.319 16.444 12.402 16.458z" stroke="none" fill="#000000" fill-rule="nonzero" />
                <path d="M16.695 23.382L16.763 24.177C 16.782 24.402 16.967001 24.565 17.186 24.575C 17.714 26.591002 19.418001 28.45 21.578001 28.45C 23.769001 28.45 25.501001 26.6 26.042002 24.589C 26.248001 24.566 26.418001 24.409 26.438002 24.194L26.438002 24.194L26.505001 23.4C 26.524 23.192999 26.393002 23.014 26.204 22.949999C 26.2 22.902998 26.199001 22.853998 26.193 22.807C 26.154001 20.986 25.837 19.514 24.402 18.907C 22.889 18.265999 21.555 18.257 20.577 18.637C 20.513 18.661999 20.347 18.883 20.282 18.924C 20.217 18.964 19.874 18.851 19.744 18.882C 17.597 19.188 16.888 21.212 17.043999 22.79C 17.039999 22.834002 17.036 22.878 17.032999 22.923C 16.824 22.974 16.675 23.163 16.695 23.382zM17.643 23.001C 18.583 22.657 20.393 21.937 20.589 21.557999C 21.412 22.411999 24.317001 22.891998 25.592001 23.051998C 25.598001 23.133999 25.606 23.215998 25.606 23.297998C 25.606 25.395998 23.846 27.832998 21.578001 27.832998C 19.317001 27.832998 17.629002 25.439 17.629002 23.297998C 17.628 23.198 17.636 23.1 17.643 23.001z" stroke="none" fill="#000000" fill-rule="nonzero" />
                <path d="M16.359 16.39L15.416999 15.638999L15.410999 15.643999L15.410999 15.648999L15.409999 15.647999L14.805999 16.129C 15.197999 16.202 15.596999 16.305 16.001999 16.477C 17.345999 17.046 17.571999 18.474998 17.606998 19.812C 18.082998 19.218 18.765 18.769001 19.706999 18.634L19.706999 18.634L19.797998 18.626001C 19.876999 18.626001 19.982998 18.643002 20.081999 18.661001C 20.099998 18.664001 20.116 18.667002 20.133 18.670002C 19.887999 17.085003 19.284 14.894002 17.802 14.685002C 17.724 14.673002 17.648 14.690002 17.598 14.711002L17.598 14.711002L16.359 16.39z" stroke="none" fill="#000000" fill-rule="nonzero" />
                <path d="M29.354 14.685C 29.276001 14.673 29.201 14.690001 29.151001 14.711L29.151001 14.711L27.910002 16.391L26.968002 15.64L26.962002 15.645L26.962002 15.650001L26.961002 15.649L26.019003 16.4L24.777002 14.719999C 24.728003 14.699999 24.652002 14.683 24.575003 14.695C 23.254004 14.881 22.629004 16.644 22.336002 18.147999C 23.027002 18.189999 23.761002 18.364998 24.502003 18.678C 24.965002 18.873999 25.314003 19.152 25.585003 19.486C 25.576002 18.146 26.289003 16.684 28.002003 16.439L28.002003 16.439L28.083002 16.432C 28.148003 16.432 28.238003 16.446 28.322002 16.460999C 28.341002 16.463999 28.359003 16.467999 28.376003 16.470999C 28.383003 16.463 28.391003 16.454998 28.398003 16.446C 28.486002 16.348 28.544003 16.286999 28.624002 16.255999C 29.307003 15.989999 30.127003 15.965999 30.988003 16.172998C 30.619 15.395 30.098 14.79 29.354 14.685z" stroke="none" fill="#000000" fill-rule="nonzero" />
                <path d="M21.559 35.933L28.674 35.927C 28.674 35.927 28.457 28.207998 25.039 27.726997C 24.925999 27.707998 24.814 27.734997 24.743 27.763998L24.743 27.763998L22.934 30.21L21.561 29.116L21.553001 29.122L21.553001 29.13L21.551 29.127998L20.178001 30.222998L18.369001 27.774998C 18.297 27.745998 18.186 27.720997 18.073002 27.737997C 14.655002 28.217997 14.438002 35.938995 14.438002 35.938995L14.438002 35.938995L21.558002 35.942997L21.559 35.933z" stroke="none" fill="#000000" fill-rule="nonzero" />
                <path d="M29.51 30.542L35.292 30.538C 35.292 30.538 35.116 24.265 32.338 23.872C 32.246002 23.858 32.156002 23.878 32.098 23.902L32.098 23.902L30.626999 25.891L29.512 25L29.505 25.006L29.505 25.013L29.504 25.011L28.389 25.901L26.919 23.912998C 26.869001 23.891998 26.791 23.883999 26.714 23.887999L26.714 23.887999L26.686 24.215998C 26.665 24.483997 26.491001 24.703999 26.245 24.795998C 25.893002 25.973997 25.112001 27.133997 24.048 27.881998C 24.011 28.064999 23.98 28.242998 23.95 28.416998L23.95 28.416998L24.585001 27.558998L24.649 27.532999C 24.721 27.504 24.893 27.450998 25.078001 27.48C 26.502 27.681 27.395 29.007 27.961 30.55L27.961 30.55L29.511 30.552L29.511 30.542L29.51 30.542z" stroke="none" fill="#000000" fill-rule="nonzero" />
                <path d="M7.807 30.548L13.593 30.550001L13.593 30.54L15.160001 30.54C 15.727001 29.005001 16.619001 27.689001 18.038 27.491001C 18.206 27.466002 18.39 27.513 18.461 27.542002L18.461 27.542002L18.527 27.568L19.149 28.409C 19.116 28.208 19.079 28.003 19.035 27.792C 18.046 27.042 17.318 25.927 16.985 24.789999C 16.725 24.706 16.537 24.477999 16.513 24.197998L16.513 24.197998L16.487001 23.889997C 16.464 23.885998 16.445002 23.874998 16.421001 23.870998C 16.329002 23.855999 16.239002 23.876999 16.180002 23.899998L16.180002 23.899998L14.710002 25.888998L13.595002 24.998999L13.588002 25.005L13.588002 25.011L13.587002 25.008999L12.472002 25.898998L11.002002 23.909998C 10.943002 23.887999 10.853002 23.866999 10.761002 23.880999C 7.983 24.273 7.807 30.548 7.807 30.548z" stroke="none" fill="#000000" fill-rule="nonzero" />
                <path d="M37.445 4.883L40.027 0.9849999L30.556 2.182L33.475998 10.876L35.762997 7.4240007C 39.444996 10.950001 41.748997 15.899001 41.748997 21.388C 41.748997 32.073 33.058 40.763 22.373997 40.763C 11.691 40.764 3 32.073 3 21.389C 3 13.463 7.787 6.645 14.617 3.646L14.617 3.646L12.36 1.39C 5.039 5.072 0 12.65 0 21.39C 0 33.726997 10.038 43.765 22.375 43.765C 34.711998 43.765 44.75 33.727 44.75 21.39C 44.75 14.855 41.927 8.978 37.445 4.883z" stroke="none" fill="#000000" fill-rule="nonzero" />
			</g>
		</g>
	</g>
</g>
</svg>