<svg width="25" height="21" viewBox="0 0 25 21" fill="none" xmlns="http://www.w3.org/2000/svg">
<path d="M9.17411 10.5C9.17411 11.4567 9.51243 12.3743 10.1146 13.0508C10.7169 13.7273 11.5336 14.1074 12.3853 14.1074C13.237 14.1074 14.0538 13.7273 14.656 13.0508C15.2582 12.3743 15.5965 11.4567 15.5965 10.5C15.5965 9.54327 15.2582 8.62572 14.656 7.94921C14.0538 7.2727 13.237 6.89264 12.3853 6.89264C11.5336 6.89264 10.7169 7.2727 10.1146 7.94921C9.51243 8.62572 9.17411 9.54327 9.17411 10.5ZM24.8344 9.66902C22.1164 3.23696 18.0078 0 12.5 0C6.98935 0 2.88361 3.23696 0.165564 9.67224C0.0565418 9.93157 0 10.2148 0 10.5016C0 10.7884 0.0565418 11.0716 0.165564 11.331C2.88361 17.763 6.99222 21 12.5 21C18.0106 21 22.1164 17.763 24.8344 11.3278C25.0552 10.806 25.0552 10.2005 24.8344 9.66902ZM12.3853 16.1687C9.59845 16.1687 7.33914 13.6307 7.33914 10.5C7.33914 7.36933 9.59845 4.83129 12.3853 4.83129C15.1722 4.83129 17.4315 7.36933 17.4315 10.5C17.4315 13.6307 15.1722 16.1687 12.3853 16.1687Z" fill="#184CB2"/>
</svg>
